<svg id="Layer_1" enable-background="new 0 0 512 512" height="512" viewBox="0 0 512 512" width="512" xmlns="http://www.w3.org/2000/svg"><g><path d="m475.351 33.309c-8.588-19.823-28.39-33.309-50.651-33.309-22.269 0-42.072 13.486-50.655 33.31-20.958 4.781-36.645 23.572-36.645 45.957 0 25.989 21.144 47.134 47.133 47.134h80.333c25.989 0 47.133-21.145 47.133-47.134.001-22.387-15.687-41.179-36.648-45.958zm-10.484 63.091h-80.333c-9.447 0-17.133-7.687-17.133-17.134s7.686-17.133 17.129-17.133c13.002.321 15.434-11.638 15.508-12.002 2.366-11.664 12.738-20.131 24.662-20.131 11.918 0 22.292 8.47 24.664 20.139 1.003 4.929 5.607 12.236 15.502 11.995 9.447 0 17.133 7.686 17.133 17.133s-7.685 17.133-17.132 17.133z"/><path d="m158.533 98.908c0-20.399-14.094-37.569-33.056-42.285-8.063-17.795-26.037-29.84-46.211-29.84-20.178 0-38.155 12.046-46.219 29.841-18.958 4.715-33.047 21.885-33.047 42.284 0 24.019 19.541 43.559 43.559 43.559h71.408c24.022 0 43.566-19.54 43.566-43.559zm-43.566 13.559h-71.408c-7.476 0-13.559-6.082-13.559-13.559 0-7.48 6.083-13.566 13.541-13.566 9.936.106 14.425-7.046 15.432-12.006 1.948-9.592 10.483-16.553 20.293-16.553 9.806 0 18.337 6.962 20.286 16.553 1.007 4.956 5.515 12.114 15.415 12.006 7.48 0 13.566 6.086 13.566 13.566 0 7.477-6.086 13.559-13.566 13.559z"/><path d="m352.4 224.934h-1.066v-49.267c0-8.284-6.716-15-15-15h-7.362l-57.972-101.45v-44.217c0-8.284-6.716-15-15-15s-15 6.716-15 15v44.217l-57.971 101.45h-7.362c-8.284 0-15 6.716-15 15v49.267h-1.067c-8.284 0-15 6.716-15 15v192.8c0 8.284 6.716 15 15 15h1.066v49.266c0 8.284 6.716 15 15 15h160.667c8.284 0 15-6.716 15-15v-49.267h1.066c8.284 0 15-6.716 15-15v-192.8c.001-8.284-6.715-14.999-14.999-14.999zm-96.4-131.5 38.419 67.233h-76.838zm-65.333 97.233h130.667v34.267h-130.667zm130.666 291.333h-130.666v-34.267h130.667v34.267zm16.067-64.267h-162.8v-162.8h162.8z"/><path d="m256 383.467c25.989 0 47.133-21.145 47.133-47.134s-21.144-47.133-47.133-47.133-47.133 21.144-47.133 47.133 21.144 47.134 47.133 47.134zm0-64.267c9.447 0 17.133 7.686 17.133 17.133s-7.686 17.134-17.133 17.134-17.133-7.687-17.133-17.134 7.686-17.133 17.133-17.133z"/></g></svg>